HIERARCHY
ROOT Hips
{
	OFFSET -14.64140 90.27770 -84.91600
	CHANNELS 6 Xposition Yposition Zposition Zrotation Xrotation Yrotation
	JOINT Spine
	{
		OFFSET 0.00000 13.20850 -1.60436
		CHANNELS 3 Zrotation Xrotation Yrotation
		JOINT Spine1
		{
			OFFSET 0.00000 8.61716 0.00000
			CHANNELS 3 Zrotation Xrotation Yrotation
			JOINT Spine2
			{
				OFFSET 0.00000 8.61717 0.00000
				CHANNELS 3 Zrotation Xrotation Yrotation
				JOINT Spine3
				{
					OFFSET 0.00000 8.61717 0.00000
					CHANNELS 3 Zrotation Xrotation Yrotation
					JOINT Neck
					{
						OFFSET 0.00000 11.07920 1.10792
						CHANNELS 3 Zrotation Xrotation Yrotation
						JOINT Neck1
						{
							OFFSET 0.00000 7.08032 0.00000
							CHANNELS 3 Zrotation Xrotation Yrotation
							JOINT Head
							{
								OFFSET 0.00000 7.08031 0.00000
								CHANNELS 3 Zrotation Xrotation Yrotation
								End site
								{
									OFFSET 0.00000 0.00000 0.00000
								}
							}
						}
					}
					JOINT RightShoulder
					{
						OFFSET -0.01000 7.91373 5.19711
						CHANNELS 3 Zrotation Xrotation Yrotation
						JOINT RightArm
						{
							OFFSET -18.41580 0.00000 0.00000
							CHANNELS 3 Zrotation Xrotation Yrotation
							JOINT RightForeArm
							{
								OFFSET -29.11090 0.00000 0.00000
								CHANNELS 3 Zrotation Xrotation Yrotation
								JOINT RightHand
								{
									OFFSET -24.65040 0.00000 0.00000
									CHANNELS 3 Zrotation Xrotation Yrotation
									JOINT RightHandThumb1
									{
										OFFSET -5.35114 -0.85590 3.97906
										CHANNELS 3 Zrotation Xrotation Yrotation
										JOINT RightHandThumb2
										{
											OFFSET -4.52789 0.00000 0.00000
											CHANNELS 3 Zrotation Xrotation Yrotation
											JOINT RightHandThumb3
											{
												OFFSET -2.46976 0.00000 0.00000
												CHANNELS 3 Zrotation Xrotation Yrotation
												End site
												{
													OFFSET 0.00000 0.00000 0.00000
												}
											}
										}
									}
									JOINT RightHandIndex1
									{
										OFFSET -14.26970 0.00000 2.88139
										CHANNELS 3 Zrotation Xrotation Yrotation
										JOINT RightHandIndex2
										{
											OFFSET -5.48836 0.00000 0.00000
											CHANNELS 3 Zrotation Xrotation Yrotation
											JOINT RightHandIndex3
											{
												OFFSET -3.01859 0.00000 0.00000
												CHANNELS 3 Zrotation Xrotation Yrotation
												End site
												{
													OFFSET 0.00000 0.00000 0.00000
												}
											}
										}
									}
									JOINT RightHandMiddle1
									{
										OFFSET -14.26970 0.00000 -0.09147
										CHANNELS 3 Zrotation Xrotation Yrotation
										JOINT RightHandMiddle2
										{
											OFFSET -6.17441 0.00000 0.00000
											CHANNELS 3 Zrotation Xrotation Yrotation
											JOINT RightHandMiddle3
											{
												OFFSET -3.56743 0.00000 0.00000
												CHANNELS 3 Zrotation Xrotation Yrotation
												End site
												{
													OFFSET 0.00000 0.00000 0.00000
												}
											}
										}
									}
									JOINT RightHandRing1
									{
										OFFSET -12.69180 0.00000 -3.06433
										CHANNELS 3 Zrotation Xrotation Yrotation
										JOINT RightHandRing2
										{
											OFFSET -5.62556 0.00000 0.00000
											CHANNELS 3 Zrotation Xrotation Yrotation
											JOINT RightHandRing3
											{
												OFFSET -3.56744 0.00000 0.00000
												CHANNELS 3 Zrotation Xrotation Yrotation
												End site
												{
													OFFSET 0.00000 0.00000 0.00000
												}
											}
										}
									}
									JOINT RightHandPinky1
									{
										OFFSET -11.11390 0.00000 -6.03719
										CHANNELS 3 Zrotation Xrotation Yrotation
										JOINT RightHandPinky2
										{
											OFFSET -4.52789 0.00000 0.00000
											CHANNELS 3 Zrotation Xrotation Yrotation
											JOINT RightHandPinky3
											{
												OFFSET -2.46976 0.00000 0.00000
												CHANNELS 3 Zrotation Xrotation Yrotation
												End site
												{
													OFFSET 0.00000 0.00000 0.00000
												}
											}
										}
									}
								}
							}
						}
					}
					JOINT LeftShoulder
					{
						OFFSET 0.01000 7.91373 5.19711
						CHANNELS 3 Zrotation Xrotation Yrotation
						JOINT LeftArm
						{
							OFFSET 18.41580 0.00000 0.00000
							CHANNELS 3 Zrotation Xrotation Yrotation
							JOINT LeftForeArm
							{
								OFFSET 29.11090 0.00000 0.00000
								CHANNELS 3 Zrotation Xrotation Yrotation
								JOINT LeftHand
								{
									OFFSET 24.65040 0.00000 0.00000
									CHANNELS 3 Zrotation Xrotation Yrotation
									JOINT LeftHandThumb1
									{
										OFFSET 5.35114 -0.85590 3.97906
										CHANNELS 3 Zrotation Xrotation Yrotation
										JOINT LeftHandThumb2
										{
											OFFSET 4.52789 0.00000 0.00000
											CHANNELS 3 Zrotation Xrotation Yrotation
											JOINT LeftHandThumb3
											{
												OFFSET 2.46977 0.00000 0.00000
												CHANNELS 3 Zrotation Xrotation Yrotation
												End site
												{
													OFFSET 0.00000 0.00000 0.00000
												}
											}
										}
									}
									JOINT LeftHandIndex1
									{
										OFFSET 14.26970 0.00000 2.88139
										CHANNELS 3 Zrotation Xrotation Yrotation
										JOINT LeftHandIndex2
										{
											OFFSET 5.48836 0.00000 0.00000
											CHANNELS 3 Zrotation Xrotation Yrotation
											JOINT LeftHandIndex3
											{
												OFFSET 3.01859 0.00000 0.00000
												CHANNELS 3 Zrotation Xrotation Yrotation
												End site
												{
													OFFSET 0.00000 0.00000 0.00000
												}
											}
										}
									}
									JOINT LeftHandMiddle1
									{
										OFFSET 14.26970 0.00000 -0.09147
										CHANNELS 3 Zrotation Xrotation Yrotation
										JOINT LeftHandMiddle2
										{
											OFFSET 6.17440 0.00000 0.00000
											CHANNELS 3 Zrotation Xrotation Yrotation
											JOINT LeftHandMiddle3
											{
												OFFSET 3.56744 0.00000 0.00000
												CHANNELS 3 Zrotation Xrotation Yrotation
												End site
												{
													OFFSET 0.00000 0.00000 0.00000
												}
											}
										}
									}
									JOINT LeftHandRing1
									{
										OFFSET 12.69180 0.00000 -3.06433
										CHANNELS 3 Zrotation Xrotation Yrotation
										JOINT LeftHandRing2
										{
											OFFSET 5.62556 0.00000 0.00000
											CHANNELS 3 Zrotation Xrotation Yrotation
											JOINT LeftHandRing3
											{
												OFFSET 3.56744 0.00000 0.00000
												CHANNELS 3 Zrotation Xrotation Yrotation
												End site
												{
													OFFSET 0.00000 0.00000 0.00000
												}
											}
										}
									}
									JOINT LeftHandPinky1
									{
										OFFSET 11.11390 0.00000 -6.03719
										CHANNELS 3 Zrotation Xrotation Yrotation
										JOINT LeftHandPinky2
										{
											OFFSET 4.52789 0.00000 0.00000
											CHANNELS 3 Zrotation Xrotation Yrotation
											JOINT LeftHandPinky3
											{
												OFFSET 2.46976 0.00000 0.00000
												CHANNELS 3 Zrotation Xrotation Yrotation
												End site
												{
													OFFSET 0.00000 0.00000 0.00000
												}
											}
										}
									}
								}
							}
						}
					}
					JOINT pCube4
					{
						OFFSET 0.00000 10.91090 1.10792
						CHANNELS 3 Zrotation Xrotation Yrotation
						End site
						{
							OFFSET 0.00000 0.00000 0.00000
						}
					}
				}
			}
		}
	}
	JOINT RightUpLeg
	{
		OFFSET -9.98441 0.00000 0.00000
		CHANNELS 3 Zrotation Xrotation Yrotation
		JOINT RightLeg
		{
			OFFSET 0.00000 -42.11790 0.00000
			CHANNELS 3 Zrotation Xrotation Yrotation
			JOINT RightFoot
			{
				OFFSET 0.00000 -45.00020 -0.00001
				CHANNELS 3 Zrotation Xrotation Yrotation
				JOINT RightForeFoot
				{
					OFFSET 0.00000 -3.74820 0.00000
					CHANNELS 3 Zrotation Xrotation Yrotation
					JOINT RightToeBase
					{
						OFFSET 0.00000 0.06325 14.43120
						CHANNELS 3 Zrotation Xrotation Yrotation
						End site
						{
							OFFSET 0.00000 0.00000 0.00000
						}
					}
				}
			}
		}
	}
	JOINT LeftUpLeg
	{
		OFFSET 9.98441 0.00000 0.00000
		CHANNELS 3 Zrotation Xrotation Yrotation
		JOINT LeftLeg
		{
			OFFSET 0.00000 -42.11800 0.00000
			CHANNELS 3 Zrotation Xrotation Yrotation
			JOINT LeftFoot
			{
				OFFSET 0.00000 -45.00070 0.00000
				CHANNELS 3 Zrotation Xrotation Yrotation
				JOINT LeftForeFoot
				{
					OFFSET 0.00000 -3.74824 0.00000
					CHANNELS 3 Zrotation Xrotation Yrotation
					JOINT LeftToeBase
					{
						OFFSET 0.00000 0.06325 14.43110
						CHANNELS 3 Zrotation Xrotation Yrotation
						End site
						{
							OFFSET 0.00000 0.00000 0.00000
						}
					}
				}
			}
		}
	}
}
MOTION
Frames: 4
Frame Time: 0.050000
-0.02774042184762049 0.03427636339506532 -0.02201776411032315 -0.014090283965392168 0.03370587816103366 0.01705121817947165 -1.7799842186270685 1.3818260892340926 -0.8194284823038385 -1.037177908651552 3.8438781779809856 0.37013464250827705 -1.1453454413168687 -1.8995697476400064 -0.5770324772279372 -0.03092906663906677 0.40649846502763026 -0.727366971773103 -0.19225312670818376 14.102533882327295 0.02719278865116435 -0.09960460636840496 0.31407009623729226 -2.0949446768809703 -0.08972731657194853 -14.792278471849261 -0.13645019099455805 -6.243987560659085 2.096845343684006 -13.653783370507387 66.6889849118385 14.806134312746101 18.724124351336727 0.6264540219170172 -2.9772893223942947 93.70847553294136 8.895263283858705 -0.154356849175687 -0.5158905951082509 4.571951919930566 -0.14423778128581188 -1.572984163208494 0.014747572041209122 0.04990448158732525 -56.19986919514165 -0.02564867207637042 -0.0054798504025379835 -56.23094210614739 -38.74080370853194 0.022026248339287516 0.013647291113614693 0.006855377063419459 -0.03128336877029261 0.018574815535389592 0.018956163339219557 0.037030293351312096 0.02042742343658338 -36.68847346701224 0.02748860821052955 0.002937320258254098 0.004559875793473475 -0.037143077870016014 0.024881561653435483 0.025616050336671227 0.027533726123219356 0.016005134866623565 -19.78033284496088 -0.02473373210329991 -0.005651471700649933 -0.03938660789866394 0.03237739520008342 -0.0017714379493920128 0.005758415959479092 0.035938003086249413 0.0362977487870746 24.014777697782655 0.028051510488965297 -0.0031609093583639097 28.908707928540213 -0.030286301762815677 -0.01511827567667666 28.849141699522093 -0.017410678321566737 0.04682321116193403 7.88548717292766 1.7781641188988828 12.776720029796037 -65.94910755099315 23.01915387067933 -19.735944457472318 8.084990447051972 -11.939838897616546 -90.99404159073258 -1.6087129523106631 0.8669242931134665 -1.2774354326068726 -0.4400094242682898 0.09100292406166981 -8.121643559419375 0.016889467837670896 -0.032874731645232746 44.53135281931997 0.024096822822207434 -0.030439411076394415 44.566757864879065 12.492085793786234 0.03350019368821453 0.019030456751666265 -0.017955331365228006 -0.019672485928144683 -0.006633642250375287 -0.0282946004249091 0.023952989741690536 0.00034604431375315637 11.128520458395489 -0.0065121080471256905 -0.025592526566603685 -0.0037868946465692663 -0.028574285517279422 0.0364300826346195 0.019416975886474067 -0.03359265335338475 0.003038820510805517 4.794171996508982 0.02670165547902129 -0.040601844540523596 -0.029593391658567274 0.011087435056947453 0.02847320871047576 -0.01427218993398749 -0.04123716179660292 -0.0006052730527932105 -5.629518745346756 0.03776060519036363 -0.009521038762214837 -6.732021376381249 0.018039839464263595 0.0208871520962228 -6.762602578577756 0.02200474915516592 0.01950310696373195 0.020420471891704234 -0.040434999371574874 -0.007323606416747219 8.026027123497702 3.503758617502225 -19.228367367210712 0.0032263221136398534 10.429428754679849 -0.009147018921724159 -5.615836340131912 -15.695480948302874 3.171689391367959 -0.011322455487625687 0.02690711543883357 -0.03401179400736567 -0.025976964106650662 4.732302547224989 -0.02533412303150751 12.483197982499414 -8.259656792291715 6.86723424296558 -0.02502351620185729 46.330967012919885 -0.004525270142977532 -4.336810481808524 -14.71656823963562 -3.797596496053501 0.04883819699363412 0.038280453049135604 0.004323046188504385 -0.026323201938432284 -10.743717926433822 -0.04759884559893258 
0.022193059698092245 -0.007948504552074057 -0.0029211499339291194 0.03579618887916617 -0.04284098389967605 0.04021688018292674 -1.9433461840845285 1.361113075139229 -0.8143657332019815 -0.9518752586180751 3.8265290678047803 0.4019347760662072 -1.1024305944475843 -1.8507561517342734 -0.6945812703406081 -0.044228655355918904 0.3376717449453618 -0.7587220161344879 -0.30153495140618136 14.225254332061743 0.0924456423972464 -0.13865092727383177 0.42030853404449836 -1.7585079910680854 -0.06005979026631371 -14.678625553108828 -0.08191481720439722 -6.451476561775415 2.2518448029677294 -13.564324032227276 66.04776259864457 12.388162332372469 19.860864116699716 1.7217614992689776 -2.505845396366481 93.01831217119404 8.990475609134108 -0.1161635837444716 -0.4902727594570351 4.578277776368733 -0.09202135970633182 -1.6152955255303223 -0.019114998362560358 -0.00024958956601774465 -56.268159477834786 0.0018318487993075633 -0.005384955257674255 -56.19718761542291 -38.74679413466969 0.030737102507908266 0.009103996932117655 -0.008190898070997347 -0.013361260869488259 -0.018119040549185186 0.0014379905724828486 0.0219398723774283 -0.01708578408561656 -36.73233722454786 0.018287820414871345 0.0021742721570051004 0.015158176721651524 0.04617459608838403 0.0013625395975272359 -0.04698808187169984 -0.021385244376446597 0.013643259958620004 -19.801505078692077 0.01950924226411407 -0.04067519612156178 0.015933474426615662 0.04818235344171406 0.043281999163247875 -0.002807303539722608 0.02436977264437152 -0.03253829577821215 24.102915183907783 0.024746782581177705 -0.03761664644280217 28.9095697809147 0.03408562958073931 -0.01239011747955398 28.892162375655378 0.0016760171013632799 -0.022771909495236237 8.310206274050199 1.8773259810102307 12.645868821762173 -65.27664657355544 21.080555390653974 -22.102483895070506 5.662640584250385 -10.278212601086652 -90.27636963381559 -1.8992755745684655 1.17906089380796 -1.387541510883307 -0.4657056902914112 0.09240576590016544 -8.166560110698207 0.036021885695031675 0.011337670581012147 44.56703686527573 -0.029383839336348073 0.001098163814737487 44.54625483400769 12.495986964200382 0.030490674229855522 0.009164734850706522 -0.00701251273390964 -0.028527875188496917 -0.03386030120335358 0.011294653216328021 -0.013244925163050845 0.009092649599637192 11.083625160905944 -0.02889673962975238 -0.04028936106923499 0.037728331745756793 -0.012886325232302086 0.04234321747618773 0.024340314692267905 0.04340006462395466 -0.011730138124391618 4.7907694179162235 -0.02412610179967683 0.04631284855789059 0.0014893272198951498 -0.004003017574422793 0.04404183874741656 0.01539238078864081 0.004313687262590158 0.003384878027943945 -5.591253089458165 -0.019627174723567425 -0.009006950413865946 -6.708590266389364 -0.04561925327949135 0.047422626865384704 -6.6822554997972325 0.00022057520065483819 0.02761644928171282 -0.010117212088890885 -0.046044153055281964 -0.009221572526599928 8.089360953161686 3.504857195746283 -19.2113632847211 -0.021139296295405098 10.413494965311694 0.030788883406217438 -5.590460338192883 -15.706311460215007 3.202326477079314 -0.00704858824227238 0.009991239336535779 0.04985957787689839 -0.01412722573419729 4.711028826104363 -0.009926934222889263 12.466443622824565 -8.239207335205338 6.875777138864548 0.03639534169943533 46.42009518144507 0.032397627133487705 -4.341581987897736 -14.718584208551984 -3.8430743549206303 0.024322957760839963 -0.030776155255242677 -0.01239791227831695 -0.029572458187622188 -10.758757822524935 -0.024201559338640946 
0.01884015778585905 -0.004158562934718398 0.04323895466519947 -0.008900255930412668 0.0455705537399544 0.016896633892319428 -2.0150841037917013 1.4503545038925096 -0.8451295930245433 -0.9871687723325554 3.8133227853059335 0.3382396236669888 -1.1245284778960034 -1.8789233355221622 -0.8807647902285387 -0.05873821566985871 0.3494144318349921 -0.7565566724716716 -0.347931605009935 14.501418815798626 0.14659774039281542 -0.09556611673343776 0.499972730926511 -1.5770768917467792 -0.17617587166775772 -14.513914017023177 -0.09946203846002626 -6.7806871668269 2.2578486387784995 -13.516476870772024 65.22569563866556 10.022544771548363 21.24477976197244 2.175917495663038 -2.2316856432859615 92.70910567494292 9.225505713844276 -0.08386988343254159 -0.3970947021844173 4.540722637956247 -0.1594042374984087 -1.641794075956882 0.012216689711313435 0.030759766066196584 -56.281622228161325 -0.010699335769649326 -0.03122428684609533 -56.247434741107384 -38.73633129695896 0.04127519640147546 -0.01678935521130161 0.036790691569264906 0.03653353793773912 0.03037736150273002 0.037480246807866775 -0.026704822685811938 -0.022074391136654443 -36.64438087644707 -0.020200352788227533 -0.030383601572727643 -0.012316557587039211 0.04842076949465692 -0.014202619137481479 -0.017123749978542317 0.03164550443949816 0.02484749101094212 -19.76264505989516 0.028332335104415737 0.02111196221545987 0.008223041543284324 0.0017103343529658187 -0.029274355117563752 -0.0433331794350387 -0.03005609509616374 -0.03625375151064431 24.07981152415369 -0.007499764327645947 0.007344057281115899 28.816601757771338 0.04262426448533422 -0.014904808519267631 28.84199923649774 -0.03819174356100571 -0.01296747089317969 8.850070282914665 1.9833877421325832 12.585812480878456 -64.30093835358318 19.4679360246311 -24.744169175365702 3.799649059384327 -8.820753050507916 -89.89810630964125 -2.3930106993105693 1.4129727442090805 -1.411074405139279 -0.5213559719261283 0.02107278697043801 -8.139476175295856 -0.008436761579159145 0.004020358240257417 44.565671735468534 -0.00016747989026880141 0.017744604338793442 44.58415131583022 12.410269124856145 -0.04492130517152694 -0.028870532410239243 -0.021110300942863324 0.026112409394227716 0.016996860935532408 0.0011164718531490388 0.01889081920945561 0.020980495145737254 11.103684959857205 -0.007851891828444769 -0.0123910714357506 0.04510443257401282 0.03254081588000915 0.025779911718470133 0.046457131536261104 -0.022152210051607252 -0.03679631820922504 4.722774527365866 -0.009821348389421525 -0.013670661335661718 0.0007556775291927876 0.021918485475457397 0.02843851573209224 0.006278103562187541 0.00025004524650518243 0.017263674612223796 -5.593996730216886 -0.023480947962228924 -0.001555622340864345 -6.707835339016647 0.011442141494544266 -0.0077479382388125325 -6.767683246656731 -0.041218621235668246 -0.03617385306439444 0.023934742124082444 0.012760772630581806 0.002780453320371878 8.085909983707191 3.5024285173553276 -19.214275222961497 -0.029651524533157232 10.401517310359411 0.01124989184041212 -5.58364573548279 -15.643161694054234 3.226965347903896 -0.04537279537124193 -0.020204034147024208 0.04541912108971666 0.005396788818496607 4.716746542945347 0.0421614029623688 12.493179862022117 -8.28005320480833 6.8383313407327675 0.039130804132128515 46.361342220957305 0.011529232809446871 -4.327248017667616 -14.770926065417022 -3.8580565578045114 -0.021422338695288035 0.019716320709037397 -0.016633828117227595 -0.03227365292080807 -10.712924916946786 -0.032304878952708144 
-0.03299702521992916 -0.022417416658386168 0.037485030063366856 0.01701463621503932 0.03783710350493908 -0.036161470854100285 -2.1262506573272155 1.484684712772008 -0.8553732518543505 -0.9724608015678419 3.8516831438277395 0.3915198873151742 -1.1934341190249473 -1.9360948561512896 -1.009508191842271 -0.12124158068477722 0.36721629032720005 -0.8068820073883034 -0.4019319215379719 14.694050979858858 0.18813366780419674 -0.16651265001625473 0.6061793890739909 -1.338368949747254 -0.1585828624201111 -14.330737178019033 -0.08302741029049018 -7.200559766878532 2.408659189250346 -13.395145347612592 64.40551175823533 7.619248209058636 22.812570738823933 1.7174630651906315 -2.175998544540074 92.94680883956022 8.905960969177963 -0.1239054346382869 -0.2374098080732769 4.524676978274243 -0.10974805135365846 -1.6427452568192948 -0.03461142933696301 -0.034770771147865094 -56.24686982529842 -0.03287838345368969 -0.00970386948706039 -56.22312930200356 -38.76826833616118 0.02206049589257096 0.024871566919371965 -0.03066954775623816 -0.02912997851161824 0.020964881153071026 0.04088436257606798 0.018343227329419416 0.0009260980055919971 -36.68012310510917 0.02462453464626293 0.03348224034569485 -0.009255643345537263 0.0061234048047096555 -0.02280998607583101 -0.0021703930207847082 0.046532204779015096 -0.0019959280182385722 -19.80153455375172 0.019732261179363157 -0.024961020364488384 0.010525557803876845 -0.0109091729871788 0.01376961127335641 -0.031195687478291986 -0.02419360117835397 0.014849121776827665 24.013568779822336 -0.015177554387941902 -0.00985697136554152 28.862318039679888 -0.004755587933229037 -0.006095721280475649 28.908987598920575 -0.020106162316856635 0.043824229570903116 9.422160806461791 2.069739906773841 12.519324500588423 -63.24341389670785 18.01912235324328 -27.655098193612133 2.3832100676301784 -7.517696276796349 -90.38966364919516 -2.539476544538577 1.5920321331779994 -1.5614239563350296 -0.4768642241918117 0.06994920790459068 -8.130078806316568 0.03596191362253004 0.007995486623104824 44.53892936657143 0.010902079922939859 -0.007686743230567324 44.56352331708585 12.491854049219352 0.036254146135783503 0.00021598828689742606 0.01212896916392566 -0.014404970746936792 -0.014527188669985881 0.030472971957694855 0.001671318158019437 -0.006045395704127742 11.084780040193442 0.03887088073018999 -0.04630525402311818 0.033432865400596416 0.011612861749882707 0.04921475002109315 0.02694990410754493 0.028923696379041814 -0.04367199710418104 4.8214000684903215 0.038972889420065264 0.02261235155005731 0.04656926552431451 -0.021868878008267187 -0.0034659914724511874 0.049346130543724914 -0.00038028636695058133 -0.04483417712872428 -5.637904481594648 -0.037273040514167945 0.03878905321478663 -6.76810211151519 -0.02738030619895419 -0.03824204320792496 -6.725330784930893 0.015328773915343789 0.005827983736755905 0.020515833226831162 0.025281311537795493 0.025355931552714078 8.022094966671878 3.4971812808552536 -19.247594336013233 -0.027776210245113248 10.409644962710502 -0.016230606019812046 -5.639156071381906 -15.616011757257548 3.217192170540876 0.03325089918195112 0.0336562624988111 0.024276741060973023 0.01657386089601528 4.6800819375851574 -0.04166251173339469 12.46719333635208 -8.21002587349813 6.912465061409824 0.04998963654934373 46.346670206370575 0.04342962102788698 -4.30673770486948 -14.766502362467838 -3.846261645505138 0.020782567926227725 0.005017162211638009 -0.005128963982509477 -0.023845562812206074 -10.700051526746272 0.039664361499972954 
